<?xml version="1.0" encoding="utf-8"?>
<!-- Generator: Adobe Illustrator 21.1.0, SVG Export Plug-In . SVG Version: 6.00 Build 0)  -->
<svg version="1.1" id="Слой_1" xmlns="http://www.w3.org/2000/svg" xmlns:xlink="http://www.w3.org/1999/xlink" x="0px" y="0px"
	 viewBox="0 0 24 24" style="enable-background:new 0 0 24 24;" xml:space="preserve">
<style type="text/css">
	.st0{fill-rule:evenodd;clip-rule:evenodd;fill:#999999;}
</style>
<g>
	<path class="st0" d="M4,24V0h18v24H4z M13,6c-1.7,0-3,1.6-3,3.5c0,1.9,1.3,3.5,3,3.5s3-1.6,3-3.5C16,7.6,14.7,6,13,6z M15.3,13.7
		c-0.5,0.9-1.4,1.5-2.3,1.5s-1.8-0.6-2.3-1.5c-2.2,1-3.7,2.3-3.7,5c0,0.1,0,0.2,0,0.3h12c0-0.1,0-0.2,0-0.3
		C19,16,17.5,14.7,15.3,13.7z M1,0h2v24H1V0z"/>
</g>
</svg>
