<?xml version="1.0" encoding="utf-8"?>
<!-- Generator: Adobe Illustrator 21.1.0, SVG Export Plug-In . SVG Version: 6.00 Build 0)  -->
<svg version="1.1" id="Слой_1" xmlns="http://www.w3.org/2000/svg" xmlns:xlink="http://www.w3.org/1999/xlink" x="0px" y="0px"
	 viewBox="0 0 26 26" style="enable-background:new 0 0 26 26;" xml:space="preserve">
<style type="text/css">
	.st0{fill-rule:evenodd;clip-rule:evenodd;fill:#FFFFFF;}
	.st1{fill-rule:evenodd;clip-rule:evenodd;fill:#F87C1D;}
</style>
<g>
	<path class="st0" d="M13,0c7.2,0,13,5.8,13,13s-5.8,13-13,13C5.8,26,0,20.2,0,13S5.8,0,13,0z"/>
</g>
<path class="st1" d="M13,2C6.9,2,2,6.9,2,13c0,6.1,4.9,11,11,11c6.1,0,11-4.9,11-11C24,6.9,19.1,2,13,2z M11.5,18l-4.2-4.3l1.4-1.4
	l2.8,2.8l5.8-5.8l1.4,1.4L11.5,18z"/>
</svg>
