<?xml version="1.0" encoding="utf-8"?>
<!-- Generator: Adobe Illustrator 21.1.0, SVG Export Plug-In . SVG Version: 6.00 Build 0)  -->
<svg version="1.1" id="Слой_1" xmlns="http://www.w3.org/2000/svg" xmlns:xlink="http://www.w3.org/1999/xlink" x="0px" y="0px"
	 viewBox="0 0 26 26" style="enable-background:new 0 0 26 26;" xml:space="preserve">
<style type="text/css">
	.st0{fill:#FFFFFF;}
	.st1{fill-rule:evenodd;clip-rule:evenodd;fill:#FFFFFF;}
</style>
<g>
	<path class="st0" d="M19.8,10.4c0.3-0.3,0.3-0.7,0-1l-3.2-3.2c-0.3-0.3-0.7-0.3-1,0L5.3,16.5c-0.3,0.3-0.3,0.7,0,1l3.2,3.2
		c0.3,0.3,0.7,0.3,1,0L19.8,10.4z M3.5,23c-0.2,0-0.3,0-0.4-0.1C3,22.8,3,22.6,3,22.5l0.5-2.1c0-0.2,0.1-0.3,0.3-0.3
		c0.1,0,0.3,0,0.4,0.1l1.6,1.7C6,21.9,6,22.1,6,22.2c0,0.1-0.1,0.2-0.3,0.3L3.5,23z"/>
	<path class="st1" d="M22.8,7.4l-1.5,1.5l-0.1-0.1l-4.1-4.1l1.5-1.5c0.3-0.3,0.7-0.3,1,0l3.2,3.2C23.1,6.7,23.1,7.1,22.8,7.4z"/>
</g>
</svg>
