<?xml version="1.0" encoding="utf-8"?>
<!-- Generator: Adobe Illustrator 21.1.0, SVG Export Plug-In . SVG Version: 6.00 Build 0)  -->
<svg version="1.1" id="Слой_1" xmlns="http://www.w3.org/2000/svg" xmlns:xlink="http://www.w3.org/1999/xlink" x="0px" y="0px"
	 viewBox="0 0 20 20" style="enable-background:new 0 0 20 20;" xml:space="preserve">
<style type="text/css">
	.st0{fill:#fff;}
</style>
<g>
	<path class="st0" d="M17,10c0-0.4-0.1-0.9,0.1-1.1l2.1-1.1l-1.5-3l-2.1,1c-0.4-0.5-0.8-0.9-1.2-1.2l1-2.1l-3-1.5l-1.1,2.1
		C10.9,3.1,10.4,3,10,3S9.1,3.1,8.9,2.9L7.8,0.8l-3,1.5l1,2.1C5.3,4.8,4.9,5.2,4.6,5.6l-2.1-1L1,7.6l2.1,1.1C3.1,9.1,3,9.6,3,10
		s0.1,0.9-0.1,1.1l-2.1,1.1l1.5,3l2.1-1c0.4,0.5,0.8,0.9,1.2,1.2l-1,2.1l3,1.5l1.1-2.1c0.4,0,0.9,0.1,1.3,0.1s0.9-0.1,1.1,0.1
		l1.1,2.1l3-1.5l-1-2.1c0.5-0.4,0.9-0.8,1.2-1.2l2.1,1l1.5-3l-2.1-1.1C16.9,10.9,17,10.4,17,10z M10,15c-2.8,0-5-2.2-5-5s2.2-5,5-5
		s5,2.2,5,5S12.8,15,10,15z"/>
	<path class="st0" d="M10,8c1.1,0,2,0.9,2,2s-0.9,2-2,2s-2-0.9-2-2S8.9,8,10,8z"/>
</g>
</svg>
