<?xml version="1.0" encoding="utf-8"?>
<!-- Generator: Adobe Illustrator 21.1.0, SVG Export Plug-In . SVG Version: 6.00 Build 0)  -->
<svg version="1.1" id="Слой_1" xmlns="http://www.w3.org/2000/svg" xmlns:xlink="http://www.w3.org/1999/xlink" x="0px" y="0px"
	 viewBox="0 0 16 16" style="enable-background:new 0 0 16 16;" xml:space="preserve">
<style type="text/css">
	.st0{fill-rule:evenodd;clip-rule:evenodd;fill:#999999;}
	.st1{fill-rule:evenodd;clip-rule:evenodd;fill:#2D5998;}
	.st2{fill-rule:evenodd;clip-rule:evenodd;fill:#FFFFFF;}
</style>
<g>
	<path class="st0" d="M8,7h6v1H8V7z M8,9h6v1H8V9z M14,14H8v-1h6V14z M8,11h6v1H8V11z M3,16v-3h1v2h11V6h-5H8V5h2V4H8V3h2V1H4v3H3V0
		h9l4,4v12H3z M11,1v4h4L11,1z"/>
</g>
<g>
	<path class="st1" d="M0,13l7,1V3L0,4V13z"/>
</g>
<g>
	<path class="st2" d="M5.5,10C5.2,10,5,9.8,5,9.5V11H4V9.5C4,9.8,3.8,10,3.5,10C3.2,10,3,9.8,3,9.5V11H2V9.5C2,9.8,1.8,10,1.5,10
		C1.2,10,1,9.8,1,9.5v-3C1,6.2,1.2,6,1.5,6C1.8,6,2,6.2,2,6.5V9h1V6.5C3,6.2,3.2,6,3.5,6C3.8,6,4,6.2,4,6.5V9h1V6.5
		C5,6.2,5.2,6,5.5,6C5.8,6,6,6.2,6,6.5v3C6,9.8,5.8,10,5.5,10z"/>
</g>
</svg>
